# xmcd
#
# Track frame offsets: 
#        150
#        20822
#        39431
#        54813
#        69098
#        87218
#        103036
#        122212
#        143094
#        163481
#        177773
#        193395
#        210819
#        225881
#
# Disc length: 3205 seconds
#
# Revision: 0
# Processed by: cddbd v1.5.2PL0 Copyright (c) Steve Scherf et al.
# Submitted via: ExactAudioCopy v0.99pb5
#
DISCID=b40c830e
DTITLE=Stompy Jones - Sock It To Me
DYEAR=2012
DGENRE=Jump Blues
TTITLE0=New Direction
TTITLE1=I Want You To Be My Baby
TTITLE2=Check Point
TTITLE3=Set Me Free
TTITLE4=Mondine
TTITLE5=Jumpin' With Erv
TTITLE6=That Night
TTITLE7=Sock It To Me
TTITLE8=RSVP
TTITLE9=My Baby's Sweet
TTITLE10=Booked
TTITLE11=Rewrite History Blues
TTITLE12=Take Me Back To My Boots and Saddle
TTITLE13=Calling It Off
EXTD=
EXTT0=
EXTT1=
EXTT2=
EXTT3=
EXTT4=
EXTT5=
EXTT6=
EXTT7=
EXTT8=
EXTT9=
EXTT10=
EXTT11=
EXTT12=
EXTT13=
PLAYORDER=
